<?xml version="1.0" encoding="UTF-8"?><svg id="a" xmlns="http://www.w3.org/2000/svg" viewBox="0 0 242.94 113.24"><defs><style>.b{fill:#393a84;}.b,.c,.d,.e,.f,.g,.h{stroke-width:0px;}.c{fill:#465a9d;}.c,.h{opacity:.5;}.i,.j{fill:#373a84;}.k{font-family:Bauhaus93, 'Bauhaus 93';font-size:60px;}.j{letter-spacing:.03em;}.d,.l,.m{fill:#6d64ad;}.l{letter-spacing:.03em;}.e{opacity:.8;}.e,.h{fill:#3a835f;}.f{fill:#479fb7;opacity:.7;}.g{fill:#7f80bd;}</style></defs><text class="k" transform="translate(93.96 59.24)"><tspan class="i" x="0" y="0">r</tspan><tspan class="m" x="19.25" y="0">aster</tspan></text><text class="k" transform="translate(94.55 98.24)"><tspan class="j" x="0" y="0">berr</tspan><tspan class="l" x="114.38" y="0">y</tspan></text><rect class="d" x="226.92" y="42.07" width="10.99" height="36.66"/><rect class="b" x="20.45" y="35.38" width="32.85" height="32.85" rx="10" ry="10" transform="translate(-25.83 41.24) rotate(-45)"/><rect class="b" x="37.37" y="69.19" width="32.24" height="32.24" rx="10" ry="10" transform="translate(-44.66 62.81) rotate(-45)"/><rect class="c" x="60.1" y="48.96" width="23.43" height="23.43" rx="7" ry="7" transform="translate(-21.87 68.56) rotate(-45)"/><rect class="c" x="1.95" y="60.42" width="23.43" height="23.43" rx="7" ry="7" transform="translate(-47 30.79) rotate(-45)"/><rect class="f" x="4.68" y="43.82" width="9.37" height="9.37" rx="2" ry="2" transform="translate(-31.55 20.83) rotate(-45)"/><rect class="g" x="18.98" y="85.19" width="12.34" height="12.34" rx="3" ry="3" transform="translate(-57.23 44.54) rotate(-45)"/><rect class="g" x="55.05" y="36.18" width="12.34" height="12.34" rx="3" ry="3" transform="translate(-12.01 55.69) rotate(-45)"/><rect class="f" x="31.01" y="95.78" width="9.37" height="9.37" rx="2" ry="2" transform="translate(-60.59 54.67) rotate(-45)"/><rect class="f" x="47.37" y="29.06" width="9.37" height="9.37" rx="2" ry="2" transform="translate(-8.62 46.69) rotate(-45)"/><rect class="g" x="11.08" y="29.16" width="12.34" height="12.34" rx="3" ry="3" transform="translate(-19.92 22.55) rotate(-45)"/><path class="h" d="M47.7,21.71c-7.63,7.83-17.33,8.07-19.17,8.08-.2-1.75-1.14-11.56,5.9-20.09C42.26.21,53.58,0,55.14,0c.17,1.57,1.17,12.88-7.43,21.71Z"/><path class="e" d="M48.86,25.09c-8.86,6.41-18.46,4.99-20.27,4.68.1-1.76.85-11.58,9.25-18.79,9.33-8,20.52-6.27,22.05-6.01-.1,1.57-1.05,12.89-11.04,20.11Z"/></svg>